<svg width="10" height="15" viewBox="0 0 10 15" fill="none" xmlns="http://www.w3.org/2000/svg">
<path d="M8.33333 0C9.25379 0 10 0.923437 10 2.0625V12.9375C10 14.0766 9.25379 15 8.33333 15H1.66667C0.746212 15 0 14.0766 0 12.9375V2.0625C0 0.923437 0.746212 1.75781e-08 1.66667 0H8.33333ZM6.21212 12.1875H3.78788C3.66733 12.1875 3.55171 12.2468 3.46647 12.3523C3.38122 12.4577 3.33333 12.6008 3.33333 12.75C3.33333 12.8992 3.38122 13.0423 3.46647 13.1477C3.55171 13.2532 3.66733 13.3125 3.78788 13.3125H6.21212C6.33267 13.3125 6.44829 13.2532 6.53353 13.1477C6.61878 13.0423 6.66667 12.8992 6.66667 12.75C6.66667 12.6008 6.61878 12.4577 6.53353 12.3523C6.44829 12.2468 6.33267 12.1875 6.21212 12.1875ZM8.33333 1.125H1.66667C1.56718 1.125 1.46867 1.14925 1.37676 1.19636C1.28484 1.24348 1.20133 1.31253 1.13098 1.39959C1.06063 1.48664 1.00483 1.58999 0.966758 1.70373C0.928686 1.81748 0.909091 1.93939 0.909091 2.0625V10.5H9.09091V2.0625C9.09091 1.93939 9.07131 1.81748 9.03324 1.70373C8.99517 1.58999 8.93937 1.48664 8.86902 1.39959C8.79867 1.31253 8.71516 1.24348 8.62325 1.19636C8.53133 1.14925 8.43282 1.125 8.33333 1.125Z" fill="#DAC36B"/>
</svg>
